<svg id="svg" xmlns="http://www.w3.org/2000/svg" xmlns:xlink="http://www.w3.org/1999/xlink" width="400" height="375.41666666666663" viewBox="0, 0, 400,375.41666666666663"><g id="svgg"><path id="path1" d="M272.917 0.122 C 272.516 0.167,271.156 0.307,269.896 0.432 C 243.017 3.106,221.934 18.716,210.246 44.598 C 207.643 50.363,205.466 56.848,204.352 62.159 C 203.925 64.195,203.849 64.378,203.582 64.031 C 202.902 63.147,202.020 60.920,201.497 58.766 C 200.814 55.956,200.852 55.959,199.802 58.645 C 195.639 69.293,195.672 79.566,199.927 97.500 C 201.849 105.599,202.144 107.554,201.685 109.167 C 201.559 109.610,201.467 109.456,201.061 108.130 C 199.813 104.050,197.971 102.173,194.801 101.752 C 193.754 101.614,193.692 101.630,193.846 102.000 C 197.026 109.638,197.581 126.918,194.899 134.787 C 193.842 137.886,193.016 138.600,190.833 138.301 C 189.008 138.052,179.135 138.056,173.229 138.310 C 163.358 138.734,157.914 137.882,155.033 135.461 L 154.338 134.876 155.114 133.948 C 156.139 132.724,156.667 131.447,156.667 130.191 C 156.667 128.990,156.759 129.017,155.016 129.719 C 151.846 130.995,148.120 130.558,145.301 128.579 C 143.195 127.099,143.126 126.977,144.249 126.694 C 146.168 126.211,147.129 124.754,147.501 121.765 C 147.774 119.569,147.799 119.602,146.306 120.266 C 141.783 122.277,136.730 121.735,133.229 118.861 L 132.604 118.348 134.479 118.338 C 139.456 118.312,143.581 115.286,144.366 111.085 C 144.593 109.871,144.694 109.920,143.198 110.524 C 139.860 111.872,136.949 111.401,130.313 108.439 C 126.999 106.960,124.563 106.046,123.894 106.032 C 123.643 106.026,124.209 105.758,125.151 105.435 C 129.587 103.917,131.988 101.358,132.542 97.555 C 132.836 95.538,132.736 95.341,131.902 96.291 C 129.763 98.728,125.818 98.994,120.833 97.036 C 117.863 95.870,113.169 93.232,113.752 93.057 C 113.923 93.006,114.484 92.849,115.000 92.709 C 117.215 92.105,118.861 90.934,119.802 89.294 C 120.699 87.731,120.747 87.769,117.760 87.662 C 111.575 87.441,108.220 85.139,99.304 75.000 C 92.647 67.430,87.717 62.775,82.708 59.330 C 71.313 51.491,58.032 45.026,49.618 43.221 C 47.462 42.759,47.547 42.707,51.981 41.780 C 60.010 40.100,63.418 38.404,64.171 35.712 C 64.570 34.287,64.121 33.958,61.773 33.958 C 58.971 33.958,58.932 33.440,61.568 31.259 C 65.731 27.815,67.820 22.167,67.083 16.348 C 66.632 12.793,65.619 13.038,63.309 17.261 C 60.838 21.779,58.291 24.176,55.883 24.248 C 54.670 24.284,54.605 23.978,54.496 17.688 C 54.331 8.160,52.318 0.417,50.005 0.417 C 48.417 0.417,47.874 2.343,46.979 11.146 C 46.088 19.908,45.388 22.809,43.916 23.840 C 42.225 25.024,41.261 23.081,39.891 15.729 C 38.255 6.951,37.219 4.375,35.325 4.375 C 33.457 4.375,32.611 7.477,31.567 18.151 C 30.815 25.839,30.198 28.542,29.195 28.542 C 27.922 28.542,25.806 26.058,23.229 21.541 C 18.820 13.812,17.189 15.315,16.763 27.500 C 16.525 34.330,15.913 34.721,12.942 29.940 C 11.217 27.163,10.517 26.423,9.856 26.677 C 8.617 27.153,8.255 29.542,8.848 33.333 C 9.036 34.536,9.242 36.036,9.305 36.667 L 9.421 37.813 8.752 36.771 C 7.483 34.795,6.432 33.958,5.219 33.958 C 4.402 33.958,4.417 34.125,5.397 35.912 C 6.319 37.594,7.083 39.895,7.083 40.990 L 7.083 41.727 5.960 40.665 C 3.566 38.400,1.860 39.070,3.432 41.657 C 6.111 46.067,6.712 49.729,4.423 47.694 C 3.178 46.586,1.886 45.998,0.882 46.082 C -0.238 46.175,-0.216 46.622,1.029 49.050 C 2.201 51.337,2.486 52.557,2.901 57.083 C 3.315 61.606,5.118 63.659,9.213 64.273 L 10.181 64.418 8.684 65.610 C 6.154 67.624,4.199 69.974,3.229 72.168 C 0.846 77.555,3.336 78.527,11.979 75.583 C 19.890 72.889,22.653 74.155,21.663 80.023 C 21.295 82.206,20.316 83.951,18.122 86.336 C 10.792 94.304,9.811 100.253,14.977 105.404 C 21.274 111.682,28.274 110.384,31.589 102.324 L 32.073 101.146 32.113 101.979 C 32.397 108.037,30.773 111.316,18.791 128.886 C 13.116 137.207,10.097 143.080,8.669 148.578 C 6.639 156.390,6.880 170.116,9.185 177.960 C 9.704 179.726,9.910 179.846,10.278 178.601 L 10.573 177.604 10.820 178.542 C 12.685 185.613,15.760 192.533,19.730 198.594 C 21.287 200.969,21.549 201.100,21.411 199.429 C 21.350 198.699,21.382 198.354,21.493 198.544 C 23.504 201.985,32.603 216.059,36.307 221.458 C 46.349 236.096,57.177 246.396,68.703 252.272 C 70.916 253.400,73.078 254.679,74.099 255.463 C 75.036 256.182,77.293 257.924,79.116 259.333 C 82.772 262.160,86.228 264.592,89.701 266.780 C 92.568 268.586,99.426 272.518,99.529 272.415 C 99.572 272.373,97.888 270.054,95.788 267.263 C 90.356 260.044,90.645 260.525,92.614 261.972 C 97.288 265.407,99.805 268.067,103.336 273.301 C 107.951 280.141,114.806 285.493,122.344 288.142 C 122.773 288.293,123.125 288.547,123.125 288.706 C 123.125 289.208,122.516 294.037,121.543 301.250 C 116.253 340.465,116.172 340.651,104.063 341.556 C 93.247 342.364,88.725 343.249,86.875 344.921 C 86.446 345.308,85.990 345.625,85.861 345.625 C 85.528 345.625,83.958 347.080,83.958 347.388 C 83.958 347.573,84.280 347.535,85.132 347.247 L 86.306 346.851 86.919 347.436 C 87.604 348.090,89.972 348.172,94.271 347.692 C 97.107 347.375,105.746 347.190,105.902 347.442 C 105.974 347.560,104.859 348.282,103.381 349.074 C 93.420 354.414,91.953 355.512,91.130 358.247 C 90.978 358.752,90.579 359.518,90.244 359.948 C 89.553 360.834,89.167 361.850,89.167 362.780 L 89.167 363.415 89.844 362.781 C 91.152 361.555,91.415 361.458,93.440 361.458 C 96.870 361.458,98.168 360.868,109.167 354.306 C 118.638 348.655,118.590 348.649,118.822 355.545 C 118.973 360.035,119.346 363.090,119.937 364.683 C 120.412 365.961,120.744 366.087,120.885 365.039 C 120.945 364.594,121.288 363.822,121.649 363.325 C 122.379 362.317,123.005 360.427,123.337 358.229 C 123.606 356.446,124.335 353.720,125.294 350.909 C 125.690 349.748,126.210 347.967,126.449 346.951 C 127.670 341.766,127.823 341.640,130.485 343.625 C 133.477 345.855,135.602 346.272,138.592 345.213 L 139.997 344.716 140.518 345.206 C 141.229 345.874,141.364 345.631,140.885 344.549 C 140.363 343.372,140.342 343.357,137.254 342.034 C 129.922 338.892,126.189 334.354,126.494 328.953 C 126.610 326.894,126.330 326.995,132.250 326.871 C 137.600 326.758,137.872 326.713,138.906 325.771 C 139.754 324.999,139.377 323.634,138.185 323.159 C 137.866 323.031,135.991 322.697,134.020 322.415 C 128.231 321.588,127.913 321.305,128.342 317.362 C 129.113 310.278,130.053 302.558,130.330 301.042 C 131.090 296.876,133.324 288.125,133.627 288.125 C 133.668 288.125,133.962 288.664,134.281 289.323 C 136.816 294.555,144.300 297.060,158.438 297.405 C 164.499 297.554,165.072 297.620,165.835 298.263 L 166.458 298.787 166.458 301.321 C 166.457 305.742,165.454 326.258,164.989 331.354 C 163.971 342.518,158.460 348.011,144.523 351.751 C 139.639 353.062,138.219 353.666,136.800 355.033 C 136.242 355.571,135.528 356.118,135.212 356.248 C 134.896 356.379,134.321 356.820,133.934 357.227 L 133.229 357.968 134.063 357.824 C 134.521 357.745,135.092 357.633,135.332 357.576 C 135.612 357.508,136.006 357.672,136.438 358.035 C 137.304 358.764,138.395 358.679,142.917 357.531 C 147.307 356.417,150.238 355.824,151.979 355.698 L 153.438 355.593 152.422 356.251 C 150.153 357.720,141.876 361.190,137.951 362.318 C 134.662 363.263,131.932 365.020,131.270 366.619 C 131.119 366.983,130.764 367.310,130.355 367.459 C 129.633 367.723,127.744 369.262,127.920 369.444 C 127.979 369.505,128.660 369.379,129.434 369.164 C 130.694 368.815,130.916 368.806,131.559 369.075 C 133.553 369.907,137.878 369.413,141.979 367.884 C 147.084 365.980,151.547 363.912,160.475 359.312 C 165.976 356.477,166.910 357.309,166.141 364.362 C 165.650 368.871,165.639 371.444,166.108 372.159 C 166.565 372.856,166.550 373.372,166.043 374.421 C 165.433 375.685,165.692 375.623,166.574 374.295 C 167.048 373.581,167.702 372.924,168.272 372.590 C 170.728 371.151,171.596 366.706,172.502 350.938 C 173.259 337.744,172.429 338.854,181.120 339.415 L 185.052 339.669 185.442 339.187 C 187.137 337.094,185.148 335.720,178.487 334.376 C 175.495 333.773,174.157 332.832,173.832 331.101 C 173.396 328.776,175.266 289.955,175.846 289.300 C 175.933 289.201,176.505 289.295,177.117 289.508 C 178.844 290.110,184.759 290.077,185.938 289.459 C 187.547 288.615,187.226 288.072,184.167 286.469 C 182.158 285.416,181.229 284.781,180.104 283.691 C 178.412 282.050,178.476 281.789,180.521 281.994 C 183.227 282.265,192.670 281.378,193.250 280.798 C 194.143 279.905,193.772 279.536,191.366 278.920 C 188.406 278.163,185.906 276.923,184.426 275.478 C 182.926 274.013,182.833 274.030,187.736 274.895 C 192.054 275.658,195.989 276.007,197.363 275.749 C 198.461 275.543,198.362 275.055,196.794 272.941 C 194.490 269.832,193.150 267.197,193.631 266.717 C 193.701 266.647,195.139 267.265,196.827 268.090 C 203.727 271.465,205.018 270.456,201.311 264.583 C 199.544 261.784,199.416 261.493,198.947 259.221 C 197.573 252.556,197.638 249.905,199.155 250.679 C 200.074 251.147,200.436 252.097,200.607 254.484 C 201.014 260.194,203.874 257.004,204.588 250.044 C 204.714 248.817,204.842 247.720,204.873 247.607 C 204.904 247.493,205.140 248.254,205.397 249.297 C 206.912 255.428,209.364 252.261,209.762 243.659 L 209.896 240.756 210.446 241.589 C 212.901 245.307,213.532 244.540,213.553 237.813 C 213.560 235.406,213.635 233.063,213.721 232.604 L 213.876 231.771 214.202 232.396 C 214.382 232.740,214.834 233.865,215.208 234.896 C 216.466 238.363,216.528 238.413,217.604 236.823 C 221.035 231.750,220.064 221.600,214.873 208.261 C 214.255 206.674,213.750 205.336,213.750 205.287 C 213.750 205.238,214.055 205.353,214.427 205.542 C 219.102 207.923,221.807 213.036,227.091 229.479 C 228.269 233.144,228.398 233.279,229.282 231.770 C 230.079 230.411,230.638 228.851,230.922 227.196 L 231.171 225.747 231.535 227.045 C 232.005 228.718,232.145 228.588,232.788 225.884 C 234.030 220.658,234.275 213.832,233.371 209.688 C 233.121 208.542,232.682 206.526,232.395 205.208 C 230.289 195.528,232.484 194.427,236.674 203.063 C 239.883 209.679,240.004 209.910,240.661 210.707 C 241.549 211.784,242.024 211.665,242.758 210.181 C 245.046 205.552,244.900 195.073,242.413 185.275 C 241.849 183.057,241.839 183.071,243.222 184.119 C 245.524 185.862,247.695 189.060,251.477 196.275 C 254.590 202.213,255.242 203.130,256.116 202.795 C 257.044 202.439,257.050 197.696,256.127 194.271 C 256.065 194.042,256.466 194.641,257.018 195.602 C 259.937 200.689,261.428 199.612,260.127 193.357 L 259.850 192.026 261.331 193.640 C 263.589 196.099,264.322 195.640,264.359 191.746 C 264.392 188.302,263.311 184.195,261.434 180.625 L 260.393 178.646 261.155 179.375 C 264.085 182.180,265.710 185.392,270.492 197.823 C 273.377 205.325,274.660 203.664,277.814 188.337 C 278.344 185.760,278.808 183.623,278.844 183.586 C 278.880 183.550,279.015 184.111,279.144 184.833 C 281.591 198.549,279.935 210.083,273.949 221.031 C 272.028 224.543,272.081 224.751,274.479 223.121 C 282.191 217.879,286.031 208.897,286.045 196.072 C 286.048 192.719,286.137 192.635,286.959 195.208 C 288.128 198.872,288.729 202.648,290.008 214.375 C 290.819 221.806,291.048 223.150,291.314 222.047 C 297.061 198.259,294.869 175.462,285.741 164.077 C 284.223 162.185,284.220 162.192,286.042 163.402 C 295.498 169.684,299.705 180.302,300.934 200.984 C 301.411 209.017,301.594 209.501,302.787 205.894 C 308.950 187.257,305.402 169.275,293.036 156.476 L 290.938 154.304 292.188 155.001 C 303.763 161.458,309.329 173.996,309.389 193.750 C 309.406 199.533,309.440 199.558,310.639 194.688 C 313.135 184.549,312.748 172.476,309.567 161.217 C 307.035 152.259,302.025 142.287,297.714 137.627 C 296.812 136.652,296.800 136.622,297.432 136.947 C 301.597 139.084,306.651 145.975,309.888 153.931 C 312.120 159.417,314.583 168.851,314.583 171.911 C 314.583 172.957,314.845 172.917,315.699 171.740 C 317.772 168.882,317.925 162.157,316.135 152.528 C 315.744 150.424,315.801 150.318,316.632 151.613 C 319.155 155.544,321.184 162.917,321.794 170.365 C 321.952 172.290,322.097 172.456,322.576 171.260 C 323.990 167.725,323.307 161.387,320.286 150.000 L 320.148 149.479 320.555 150.000 C 323.957 154.345,326.512 166.845,327.007 181.563 C 327.173 186.489,327.933 188.805,330.508 192.231 C 334.959 198.151,344.579 197.915,349.415 191.767 C 349.919 191.127,349.935 191.124,348.331 191.924 C 343.812 194.177,338.933 193.653,335.502 190.548 C 332.325 187.673,331.366 180.828,332.680 170.417 C 334.147 158.804,334.489 153.934,334.299 147.396 C 333.646 124.962,327.907 107.891,315.540 91.599 C 314.076 89.671,312.917 88.055,312.963 88.009 C 313.249 87.723,319.516 93.332,322.329 96.391 C 336.250 111.534,342.727 129.349,345.421 159.896 C 346.284 169.689,347.006 171.634,347.850 166.441 C 352.205 139.641,348.321 115.439,336.535 95.933 C 332.435 89.147,328.612 84.383,320.237 75.621 C 317.061 72.300,317.048 72.384,320.625 73.122 C 327.355 74.511,335.043 81.064,341.769 91.146 C 343.705 94.049,347.071 99.907,347.544 101.198 C 348.437 103.637,347.676 99.304,346.449 94.964 C 340.832 75.095,330.496 64.341,307.604 54.549 C 304.216 53.100,299.515 50.833,299.639 50.708 C 299.686 50.661,301.169 50.813,302.935 51.047 C 313.583 52.453,322.075 55.095,326.348 58.329 C 328.071 59.633,328.002 59.649,327.847 57.979 C 327.545 54.751,325.728 52.738,316.614 45.539 C 314.396 43.787,314.392 43.756,316.406 43.886 C 325.430 44.467,333.293 49.303,339.643 58.177 C 341.995 61.463,344.249 65.982,344.552 68.017 L 344.677 68.854 344.826 67.708 C 345.978 58.869,344.876 53.023,340.902 46.903 C 339.475 44.707,339.534 44.675,341.625 46.517 C 354.194 57.589,367.080 88.064,371.793 117.865 C 373.086 126.034,373.318 109.641,372.068 98.438 C 367.865 60.738,351.952 31.687,328.021 18.026 L 325.938 16.837 327.813 16.973 C 348.202 18.455,372.828 33.043,396.352 57.574 C 400.183 61.569,400.542 61.766,399.072 59.069 C 393.328 48.532,381.396 36.273,367.604 26.740 C 346.139 11.902,321.713 3.335,292.813 0.508 C 289.692 0.202,274.770 -0.087,272.917 0.122 " stroke="none" fill="#000000" fill-rule="evenodd"></path></g></svg>