<svg id="svg" xmlns="http://www.w3.org/2000/svg" xmlns:xlink="http://www.w3.org/1999/xlink" width="400" height="382.0833333333333" viewBox="0, 0, 400,382.0833333333333"><g id="svgg"><path id="path0" d="M164.063 0.542 C 163.260 0.829,159.370 1.991,155.417 3.124 C 137.916 8.141,132.788 11.790,130.108 21.133 C 129.814 22.157,129.553 23.012,129.527 23.032 C 129.501 23.051,128.542 23.654,127.396 24.370 C 125.433 25.598,115.045 32.340,113.993 33.070 C 113.695 33.277,113.946 32.823,114.642 31.899 C 118.516 26.748,120.680 21.541,123.463 10.664 C 125.339 3.331,125.372 3.747,123.021 5.050 C 101.429 17.022,90.158 32.844,94.333 45.324 L 94.899 47.019 93.127 48.532 C 89.629 51.519,84.878 56.000,81.521 59.479 L 78.104 63.021 79.246 60.625 C 82.572 53.649,84.258 44.851,83.858 36.563 C 83.627 31.803,82.675 22.829,82.433 23.142 C 82.396 23.190,80.631 25.385,78.512 28.021 C 67.470 41.749,64.155 47.213,62.529 54.375 C 60.909 61.506,61.421 71.235,63.647 75.628 C 64.489 77.290,64.901 77.238,67.461 75.152 L 68.985 73.910 67.130 76.382 C 62.977 81.919,58.497 88.759,55.087 94.770 C 54.181 96.368,53.416 97.653,53.389 97.625 C 53.362 97.598,53.479 96.785,53.649 95.819 C 55.000 88.148,54.395 79.820,51.866 71.301 C 50.227 65.780,46.604 54.583,46.456 54.583 C 46.275 54.583,40.669 71.970,39.504 76.146 C 34.513 94.032,35.016 100.793,42.276 113.385 C 44.006 116.387,43.908 116.312,44.756 115.260 C 45.339 114.538,45.295 114.707,44.175 117.509 C 42.615 121.411,40.269 128.257,38.863 133.013 L 37.756 136.755 37.507 135.513 C 36.003 128.013,32.065 118.305,28.469 113.230 C 27.528 111.903,25.506 108.750,23.975 106.224 C 20.937 101.208,20.366 100.417,19.785 100.417 C 19.202 100.417,19.198 100.440,18.965 105.332 C 18.845 107.842,18.550 113.036,18.310 116.875 C 16.746 141.834,20.408 153.428,31.667 159.173 C 32.411 159.553,33.040 159.875,33.064 159.888 C 33.087 159.901,32.927 161.434,32.707 163.295 C 32.144 168.054,31.693 174.380,31.530 179.780 L 31.391 184.393 30.209 182.145 C 24.643 171.559,17.890 162.480,12.433 158.245 C 11.037 157.162,8.726 155.329,7.297 154.172 C 3.412 151.026,3.007 151.066,3.822 154.512 C 4.116 155.754,5.019 160.427,5.828 164.896 C 9.355 184.358,12.929 193.251,20.177 200.593 C 23.379 203.838,31.054 208.958,32.713 208.958 C 32.997 208.958,33.125 209.099,33.125 209.413 C 33.125 211.889,35.730 224.996,37.630 232.083 C 37.802 232.726,37.896 232.821,35.886 230.313 C 32.101 225.591,31.826 225.378,13.854 213.249 C 5.830 207.834,0.123 204.455,0.042 205.072 C -0.108 206.216,12.825 231.951,16.646 238.112 C 21.206 245.464,28.756 251.898,36.667 255.173 C 40.283 256.670,43.947 257.777,45.348 257.796 L 46.633 257.813 47.101 258.958 C 48.853 263.244,53.861 272.863,57.211 278.376 L 58.947 281.232 57.323 279.921 C 49.950 273.968,38.469 268.603,27.396 265.936 C 22.835 264.837,21.820 264.537,17.862 263.120 C 12.436 261.177,12.250 261.650,16.468 266.667 C 17.865 268.328,19.952 270.906,21.105 272.396 C 27.094 280.129,30.320 283.699,35.313 288.115 C 41.829 293.879,46.557 297.065,50.962 298.660 C 57.155 300.902,64.199 302.240,67.708 301.840 C 68.568 301.742,70.068 301.580,71.042 301.480 C 72.016 301.380,72.953 301.245,73.125 301.180 C 73.326 301.104,73.686 301.374,74.135 301.937 C 78.169 307.002,87.665 316.467,94.488 322.226 C 95.398 322.993,94.889 322.779,90.208 320.423 C 87.286 318.952,84.380 317.596,83.750 317.411 C 79.796 316.246,63.849 314.142,49.479 312.890 C 46.253 312.609,39.082 312.518,38.843 312.755 C 38.435 313.161,43.853 317.319,54.219 324.556 C 69.779 335.420,85.215 340.140,98.325 338.043 C 102.859 337.318,110.527 334.643,110.092 333.938 C 110.011 333.807,110.637 334.165,111.483 334.733 C 117.654 338.880,126.608 343.689,135.729 347.755 C 137.037 348.338,137.716 348.726,137.311 348.658 C 126.084 346.776,116.439 347.313,98.542 350.814 C 91.285 352.234,78.376 354.583,77.832 354.583 C 77.530 354.583,77.746 355.400,78.073 355.495 C 78.273 355.553,79.469 355.896,80.729 356.256 C 81.990 356.616,86.724 358.034,91.250 359.408 C 107.855 364.449,115.708 365.732,125.606 365.020 C 137.059 364.197,143.288 361.864,150.121 355.838 L 152.312 353.906 154.958 354.659 C 160.866 356.341,169.992 358.390,173.733 358.875 L 174.862 359.021 172.481 359.685 C 166.823 361.263,165.057 362.007,152.674 368.035 C 138.166 375.097,127.500 380.695,127.500 381.247 C 127.500 382.260,150.892 381.071,158.542 379.669 C 168.986 377.754,180.411 373.602,185.320 369.937 C 187.190 368.541,190.952 364.890,192.804 362.673 L 194.255 360.938 200.329 360.956 L 206.404 360.974 210.754 365.049 C 219.116 372.881,219.805 373.253,233.770 377.472 C 242.293 380.047,243.433 380.213,260.417 381.359 C 273.183 382.220,273.862 382.236,274.158 381.682 C 274.628 380.805,267.041 376.532,261.181 374.373 C 258.738 373.474,256.629 372.345,252.604 369.784 C 247.053 366.251,235.618 361.593,227.503 359.559 C 225.554 359.070,225.538 359.061,226.357 358.907 C 235.549 357.184,243.982 355.155,248.626 353.550 C 250.177 353.015,250.243 353.018,250.091 353.623 C 249.399 356.381,261.043 362.858,269.377 364.350 C 279.434 366.151,289.693 365.387,301.667 361.945 C 318.440 357.124,322.640 355.453,320.657 354.392 C 320.038 354.061,307.765 351.585,300.521 350.330 C 280.242 346.817,274.953 346.655,263.021 349.184 C 261.302 349.548,259.661 349.886,259.375 349.934 C 259.089 349.982,260.120 349.495,261.667 348.852 C 271.681 344.688,282.001 339.121,291.393 332.817 C 293.542 331.375,295.060 330.456,294.767 330.774 C 291.826 333.974,293.047 335.884,298.989 337.378 C 308.923 339.877,319.509 338.618,331.321 333.532 C 337.160 331.018,358.524 317.310,361.112 314.417 C 362.745 312.591,359.182 312.507,341.667 313.957 C 322.859 315.514,313.409 318.009,304.167 323.856 C 302.336 325.014,302.292 325.039,302.292 324.924 C 302.292 324.868,303.346 323.955,304.635 322.894 C 312.058 316.784,320.081 308.837,326.099 301.631 C 328.178 299.143,328.216 299.110,328.024 299.988 C 327.332 303.135,341.232 302.090,350.830 298.272 C 359.412 294.859,371.418 284.661,377.858 275.313 C 381.911 269.431,383.922 267.072,386.654 264.995 C 390.512 262.062,388.777 261.573,381.875 263.650 C 379.755 264.288,375.987 265.319,373.501 265.940 C 361.359 268.978,348.455 275.732,340.423 283.253 C 338.828 284.747,338.727 284.811,339.307 283.958 C 343.235 278.183,349.795 266.099,352.850 259.010 C 353.648 257.159,353.654 257.153,354.259 257.611 C 355.130 258.270,356.577 258.034,360.938 256.524 C 370.295 253.284,378.639 247.172,383.214 240.208 C 387.791 233.241,400.000 208.862,400.000 206.690 C 400.000 205.574,399.734 205.677,394.792 208.715 C 374.468 221.208,365.192 228.608,361.886 234.966 C 361.429 235.845,361.466 235.323,361.995 233.428 C 363.953 226.415,366.200 215.468,366.782 210.104 L 366.917 208.854 367.990 208.841 C 370.611 208.810,378.398 203.757,382.098 199.688 C 388.632 192.500,392.112 183.737,395.213 166.667 C 396.612 158.963,397.063 156.807,397.695 154.792 C 399.461 149.160,397.483 150.167,388.229 159.610 C 376.855 171.217,372.380 177.297,369.401 185.192 L 368.607 187.295 368.477 181.408 C 368.311 173.943,367.307 161.098,366.750 159.316 C 366.664 159.039,366.767 159.078,367.162 159.472 C 368.171 160.482,370.219 159.688,373.235 157.119 C 381.774 149.842,384.664 137.268,383.013 114.583 C 382.484 107.327,381.810 99.691,381.685 99.553 C 381.319 99.150,371.969 114.803,368.538 121.563 C 364.750 129.025,364.393 130.445,364.216 138.750 L 364.099 144.271 363.501 141.875 C 361.048 132.045,357.988 122.604,354.790 115.000 C 353.162 111.127,353.029 110.616,354.171 112.611 C 356.018 115.840,357.148 115.823,359.423 112.531 C 362.027 108.762,365.417 98.319,365.417 94.063 C 365.417 89.240,361.845 74.863,357.809 63.438 C 357.162 61.604,356.487 59.682,356.311 59.167 C 355.552 56.951,354.867 57.153,353.429 60.017 C 350.717 65.417,348.411 72.651,347.890 77.396 C 347.476 81.166,347.531 96.748,347.967 98.950 C 348.158 99.920,348.294 100.734,348.268 100.760 C 348.242 100.786,347.591 99.644,346.821 98.224 C 336.530 79.234,322.172 61.400,306.667 48.346 C 304.593 46.600,304.582 46.588,305.231 46.741 C 307.833 47.352,308.271 36.115,305.845 30.993 C 301.888 22.634,289.996 11.369,278.877 5.445 C 276.492 4.175,276.423 4.642,278.039 11.097 C 281.004 22.938,283.162 27.637,288.538 33.958 C 290.005 35.684,289.969 35.730,288.089 34.522 C 287.135 33.909,284.667 32.509,282.604 31.409 C 280.542 30.310,277.354 28.566,275.521 27.534 L 272.188 25.657 271.929 23.818 C 270.885 16.376,264.335 9.344,255.265 5.927 C 251.339 4.448,235.939 0.001,234.740 0.001 C 233.290 -0.000,233.992 1.550,237.635 6.402 C 248.301 20.602,254.365 25.295,264.704 27.353 L 267.011 27.813 273.809 32.491 C 277.548 35.065,280.571 37.207,280.526 37.251 C 280.482 37.296,279.992 37.235,279.438 37.116 C 272.418 35.611,263.438 36.820,250.635 40.994 C 240.463 44.310,240.708 45.326,251.979 46.565 C 256.671 47.081,260.496 47.516,267.604 48.344 C 276.132 49.337,291.328 48.934,294.443 47.633 C 295.152 47.336,295.157 47.338,296.691 48.520 C 299.999 51.068,307.356 57.297,307.219 57.434 C 307.192 57.461,306.564 57.293,305.824 57.061 C 295.596 53.854,273.542 53.369,273.542 56.352 C 273.542 57.027,274.510 57.584,279.063 59.529 C 281.240 60.460,284.240 61.799,285.729 62.506 C 303.074 70.737,308.075 72.335,319.052 73.149 L 322.520 73.406 324.767 76.234 C 327.766 80.008,329.797 82.722,331.840 85.682 L 333.532 88.134 332.270 87.277 C 325.301 82.544,311.297 77.418,302.136 76.245 C 298.328 75.758,298.714 76.584,304.688 81.707 C 324.654 98.831,336.677 107.256,343.913 109.192 L 345.592 109.642 346.570 111.748 C 348.306 115.488,350.420 120.764,352.214 125.833 L 353.135 128.438 351.952 127.083 C 345.515 119.715,339.398 115.231,327.992 109.516 C 319.234 105.129,318.235 105.597,323.521 111.607 C 328.157 116.879,331.648 121.891,335.651 129.021 C 340.314 137.328,349.634 146.878,357.752 151.667 C 359.052 152.433,359.364 152.718,359.461 153.229 C 360.567 159.010,362.110 172.655,362.072 176.318 L 362.061 177.396 361.547 175.655 C 358.507 165.373,358.634 165.539,337.056 143.650 C 333.941 140.490,333.937 140.531,336.582 149.479 C 342.652 170.019,346.892 180.514,352.574 189.063 C 355.173 192.973,359.022 197.818,360.820 199.442 L 361.695 200.233 361.257 204.127 C 360.523 210.650,359.459 217.374,358.382 222.292 L 358.006 224.008 357.758 221.532 C 356.985 213.801,355.149 209.116,348.206 197.153 C 341.515 185.626,338.883 182.138,338.430 184.199 C 337.981 186.246,340.049 216.812,341.168 224.664 C 342.059 230.916,346.924 242.264,350.328 246.032 L 351.105 246.892 350.312 248.915 C 347.760 255.423,340.458 270.739,340.086 270.363 C 340.059 270.335,340.170 269.281,340.334 268.021 C 341.268 260.851,340.870 252.642,339.189 244.375 C 335.895 228.176,332.046 221.083,331.280 229.801 C 331.003 232.948,330.081 237.649,327.991 246.563 C 322.706 269.101,322.543 275.610,326.963 287.489 L 327.696 289.457 327.140 290.197 C 324.538 293.665,319.248 299.953,316.177 303.229 L 314.614 304.896 315.013 303.333 C 316.633 296.984,317.421 288.746,317.234 280.104 C 317.134 275.512,316.371 264.634,316.131 264.395 C 316.002 264.265,316.066 264.152,313.957 268.229 C 308.906 277.996,305.402 284.248,302.512 288.648 C 296.803 297.341,295.272 303.270,294.663 319.038 L 294.519 322.763 292.416 324.322 C 288.441 327.268,277.575 334.298,277.341 334.075 C 277.311 334.046,277.760 333.305,278.339 332.428 C 282.778 325.695,286.441 316.304,288.101 307.396 C 288.796 303.673,289.623 298.095,289.499 297.971 C 289.193 297.665,269.622 317.017,265.430 321.771 C 257.891 330.319,254.849 335.834,253.836 342.785 C 253.650 344.061,253.469 345.136,253.432 345.174 C 252.956 345.682,235.997 350.650,235.712 350.365 C 235.674 350.326,236.145 349.893,236.759 349.403 C 244.633 343.120,254.583 327.955,254.583 322.238 C 254.583 322.173,252.357 323.181,249.635 324.478 C 244.705 326.827,241.289 328.253,236.146 330.107 C 226.105 333.727,221.980 336.493,216.539 343.258 C 212.853 347.841,211.150 350.970,211.289 352.901 L 211.377 354.116 210.116 354.245 C 207.851 354.478,196.212 354.614,193.455 354.440 L 190.764 354.271 189.695 351.667 C 184.819 339.797,180.051 335.768,163.542 329.571 C 157.146 327.170,154.134 325.861,149.829 323.612 C 147.959 322.635,146.393 321.871,146.349 321.914 C 146.109 322.155,147.706 326.734,148.842 329.063 C 151.977 335.487,160.645 346.253,165.777 350.096 C 166.376 350.545,166.836 350.942,166.800 350.978 C 166.559 351.219,152.570 347.361,148.750 346.001 L 147.396 345.519 147.254 343.812 C 146.557 335.404,143.553 330.210,133.003 319.167 C 127.756 313.674,111.890 297.624,111.802 297.719 C 111.754 297.770,111.930 299.285,112.191 301.085 C 114.098 314.200,118.493 326.740,123.623 333.699 C 124.151 334.415,124.583 335.055,124.583 335.120 C 124.583 335.582,114.306 329.143,108.848 325.263 L 106.310 323.458 106.582 322.424 C 108.974 313.359,105.027 298.556,96.626 285.087 C 94.068 280.985,90.926 275.298,87.803 269.122 C 84.634 262.851,84.839 262.255,84.663 278.229 C 84.465 296.130,84.807 300.022,87.072 305.629 L 87.701 307.188 85.047 304.465 C 78.799 298.055,72.735 290.539,73.305 289.911 C 74.302 288.812,75.898 283.251,76.701 278.072 C 77.917 270.242,77.198 263.255,73.537 247.292 C 70.539 234.219,69.697 230.013,69.427 226.768 C 68.811 219.373,63.577 234.752,60.725 252.336 C 59.607 259.226,59.727 262.877,61.347 271.165 C 61.614 272.529,61.811 273.669,61.785 273.697 C 61.603 273.895,56.436 264.196,54.352 259.746 C 50.492 251.500,48.825 247.278,49.322 247.001 C 52.541 245.199,57.981 235.051,59.362 228.271 C 60.739 221.513,63.039 191.884,62.725 184.948 C 62.586 181.877,55.700 191.712,49.375 204.016 C 44.949 212.625,43.361 218.563,43.320 226.659 C 43.304 229.811,43.244 229.697,42.006 224.149 C 40.525 217.509,39.337 210.377,38.764 204.688 C 38.637 203.427,38.490 202.057,38.436 201.644 C 38.343 200.933,38.367 200.898,38.865 200.993 C 40.331 201.273,52.276 184.800,54.682 179.179 C 57.407 172.812,66.887 143.067,66.359 142.540 C 65.796 141.976,51.144 156.262,47.443 160.984 C 43.005 166.644,40.567 171.763,38.435 179.896 L 37.724 182.604 37.717 181.354 C 37.682 175.988,38.820 163.588,40.010 156.354 C 40.602 152.754,40.509 152.988,41.407 152.845 C 42.855 152.613,48.333 148.637,51.979 145.171 C 58.304 139.159,61.276 135.447,69.547 123.229 C 72.339 119.104,76.006 113.894,77.695 111.652 C 82.923 104.710,82.874 104.491,76.771 107.500 C 71.244 110.225,62.206 115.584,57.516 118.917 C 54.132 121.322,49.960 125.619,47.277 129.461 C 46.672 130.328,46.138 130.999,46.090 130.951 C 45.849 130.711,49.707 120.233,51.886 115.208 C 52.706 113.318,53.567 111.326,53.800 110.781 C 54.187 109.874,54.282 109.792,54.939 109.792 C 59.948 109.792,76.083 99.634,88.231 88.833 C 90.409 86.897,93.877 83.955,95.939 82.295 C 104.283 75.578,103.317 74.770,90.804 78.005 C 81.610 80.382,72.911 84.441,66.454 89.366 L 64.771 90.649 65.334 89.752 C 67.445 86.386,71.673 80.544,75.289 75.996 L 77.396 73.347 80.008 73.340 C 89.443 73.315,97.803 70.967,111.146 64.591 C 114.698 62.894,119.515 60.679,121.851 59.670 C 130.852 55.781,129.313 54.487,115.729 54.523 C 105.365 54.550,99.146 55.418,93.125 57.676 L 91.979 58.105 92.917 57.263 C 95.568 54.879,99.795 51.311,102.344 49.305 L 105.209 47.050 106.198 47.370 C 113.614 49.767,120.340 49.815,138.958 47.605 C 144.172 46.986,149.797 46.381,151.458 46.260 C 156.566 45.890,157.114 45.826,157.855 45.517 C 159.553 44.807,158.480 43.969,153.219 41.892 C 141.238 37.164,128.918 35.545,119.526 37.464 C 118.321 37.710,117.788 37.754,117.964 37.593 C 118.110 37.458,120.432 35.677,123.125 33.635 C 125.818 31.593,128.635 29.435,129.385 28.840 L 130.749 27.758 133.026 27.734 C 142.323 27.635,150.304 22.597,160.930 10.117 C 167.567 2.323,168.690 -1.111,164.063 0.542 M317.807 25.156 C 317.870 26.617,318.017 31.422,318.135 35.833 C 318.598 53.138,319.213 56.268,323.572 63.488 C 327.044 69.240,335.216 77.413,336.781 76.700 C 338.814 75.774,340.237 65.018,339.282 57.799 C 338.102 48.875,335.013 43.055,325.024 30.938 C 321.823 27.055,317.921 22.500,317.794 22.500 C 317.739 22.500,317.744 23.695,317.807 25.156 " stroke="none" fill="#893838" fill-rule="evenodd"></path></g></svg>